<svg width="24" height="24" viewBox="0 0 24 24" fill="none" xmlns="http://www.w3.org/2000/svg">
<path d="M11.9885 1.48935C11.7898 1.49238 11.6003 1.57417 11.4619 1.71677C11.3234 1.85937 11.2472 2.0511 11.25 2.24985V6.43935L10.53 5.71935C10.4608 5.64775 10.378 5.59065 10.2865 5.55139C10.195 5.51213 10.0965 5.49148 9.99695 5.49066C9.89736 5.48985 9.79861 5.50887 9.70646 5.54662C9.6143 5.58438 9.53059 5.64011 9.4602 5.71056C9.38982 5.78101 9.33417 5.86478 9.2965 5.95697C9.25883 6.04916 9.2399 6.14792 9.24082 6.24751C9.24173 6.34709 9.26246 6.4455 9.30181 6.53698C9.34116 6.62846 9.39834 6.7112 9.47 6.78035L11.47 8.78035C11.6106 8.9208 11.8013 8.99969 12 8.99969C12.1988 8.99969 12.3894 8.9208 12.53 8.78035L14.53 6.78035C14.6017 6.7112 14.6588 6.62846 14.6982 6.53698C14.7375 6.4455 14.7583 6.34709 14.7592 6.24751C14.7601 6.14792 14.7412 6.04916 14.7035 5.95697C14.6658 5.86478 14.6102 5.78101 14.5398 5.71056C14.4694 5.64011 14.3857 5.58438 14.2935 5.54662C14.2014 5.50887 14.1026 5.48985 14.0031 5.49066C13.9035 5.49148 13.805 5.51213 13.7135 5.55139C13.622 5.59065 13.5392 5.64775 13.47 5.71935L12.75 6.43935V2.24985C12.7514 2.1495 12.7327 2.04989 12.6949 1.95692C12.6571 1.86394 12.6011 1.7795 12.5301 1.70858C12.459 1.63766 12.3745 1.58172 12.2815 1.54406C12.1885 1.5064 12.0888 1.4878 11.9885 1.48935ZM4.3965 4.00935C4.13405 4.00312 3.87357 4.05601 3.63434 4.16412C3.39511 4.27222 3.18327 4.43276 3.0145 4.63385L2.0245 5.82135C1.68931 6.22588 1.50464 6.73406 1.5019 7.25942C1.49917 7.78477 1.67854 8.29484 2.0095 8.70285L4 11.1433V18.2753C4 19.7853 5.24 21.0253 6.75 21.0253C6.75067 21.0253 6.75133 21.0253 6.752 21.0253L17.25 20.9998C18.76 20.9998 20 19.7598 20 18.2498V11.1433L21.99 8.70335C22.3212 8.29536 22.5007 7.78522 22.4981 7.25975C22.4954 6.73429 22.3107 6.22598 21.9755 5.82135L20.9855 4.63385C20.8167 4.43285 20.6048 4.27241 20.3656 4.16439C20.1264 4.05637 19.8659 4.00356 19.6035 4.00985C19.3411 4.01251 19.0827 4.07411 18.8473 4.19007C18.6119 4.30604 18.4055 4.47342 18.2435 4.67985L16.834 6.49085C16.8209 6.4935 16.8079 6.4965 16.795 6.49985H15.725C15.6743 6.87339 15.5029 7.22014 15.237 7.48735L14.7245 7.99985H16.622L18.0945 9.99985H5.952L7.6035 7.99985H9.2755L8.7625 7.48735C8.49698 7.21992 8.32584 6.87325 8.275 6.49985H7.363C7.32196 6.49375 7.28048 6.49108 7.239 6.49185C7.21644 6.4925 7.19391 6.49417 7.1715 6.49685L5.757 4.67985C5.59493 4.47336 5.38852 4.30594 5.15302 4.18997C4.91753 4.07399 4.65899 4.01244 4.3965 4.00985V4.00935ZM4.3715 5.48985C4.444 5.49135 4.5165 5.52835 4.5725 5.60035L6.0605 7.51335L4.5195 9.38085C4.516 9.38535 4.5135 9.39085 4.5095 9.39535L3.172 7.75535C3.05855 7.61815 2.9969 7.44546 2.99781 7.26744C2.99873 7.08942 3.06215 6.91737 3.177 6.78135L4.167 5.59335C4.19094 5.56177 4.22174 5.53604 4.25708 5.51811C4.29242 5.50018 4.33138 5.49051 4.371 5.48985H4.3715ZM19.629 5.48985C19.6686 5.49051 19.7076 5.50018 19.7429 5.51811C19.7783 5.53604 19.8091 5.56177 19.833 5.59335L20.823 6.78135C21.061 7.06635 21.063 7.46835 20.828 7.75585L19.502 9.38185H19.501L19.5 9.38385C19.492 9.37385 19.4865 9.36235 19.4785 9.35235L19.501 9.38185L18.035 7.39035L19.4275 5.60035C19.4505 5.56792 19.4806 5.54116 19.5156 5.5221C19.5505 5.50304 19.5893 5.49218 19.629 5.49035V5.48985ZM5.5 11.4998H18.5V18.2498C18.5 18.9488 17.949 19.4998 17.25 19.4998C17.2493 19.4998 17.2487 19.4998 17.248 19.4998L6.75 19.5248C6.58544 19.5263 6.42224 19.495 6.26992 19.4327C6.1176 19.3704 5.97921 19.2784 5.86285 19.162C5.74648 19.0456 5.65446 18.9073 5.59216 18.7549C5.52986 18.6026 5.49853 18.4394 5.5 18.2748V11.4998ZM9.75 13.4998C9.55109 13.4998 9.36032 13.5789 9.21967 13.7195C9.07902 13.8602 9 14.0509 9 14.2498C9 14.4488 9.07902 14.6395 9.21967 14.7802C9.36032 14.9208 9.55109 14.9998 9.75 14.9998H14.25C14.4489 14.9998 14.6397 14.9208 14.7803 14.7802C14.921 14.6395 15 14.4488 15 14.2498C15 14.0509 14.921 13.8602 14.7803 13.7195C14.6397 13.5789 14.4489 13.4998 14.25 13.4998H9.75Z" fill="white"/>
</svg>
