<svg width="24" height="24" viewBox="0 0 24 24" fill="none" xmlns="http://www.w3.org/2000/svg">
<path d="M12 2C8.8255 2 5.992 3.4885 4.162 5.8C4.10084 5.87722 4.05548 5.96573 4.02852 6.06047C4.00157 6.15522 3.99353 6.25434 4.00489 6.35219C4.01624 6.45004 4.04675 6.5447 4.09469 6.63076C4.14262 6.71681 4.20703 6.79259 4.28425 6.85375C4.36147 6.91491 4.44998 6.96027 4.54472 6.98723C4.63947 7.01418 4.73859 7.02222 4.83644 7.01086C4.93429 6.99951 5.02895 6.969 5.11501 6.92106C5.20106 6.87313 5.27684 6.80872 5.338 6.7315C6.896 4.764 9.293 3.5 12 3.5C16.703 3.5 20.5 7.297 20.5 12C20.5 16.703 16.703 20.5 12 20.5C9.2935 20.5 6.896 19.236 5.338 17.2685C5.27684 17.1913 5.20106 17.1269 5.11501 17.0789C5.02895 17.031 4.93429 17.0005 4.83644 16.9891C4.73859 16.9778 4.63947 16.9858 4.54472 17.0128C4.44998 17.0397 4.36147 17.0851 4.28425 17.1462C4.20703 17.2074 4.14262 17.2832 4.09469 17.3692C4.04675 17.4553 4.01624 17.55 4.00489 17.6478C3.99353 17.7457 4.00157 17.8448 4.02852 17.9395C4.05548 18.0343 4.10084 18.1228 4.162 18.2C5.992 20.5115 8.8255 22 12 22C17.514 22 22 17.514 22 12C22 6.486 17.514 2 12 2ZM5.735 8.243C5.54045 8.24881 5.35577 8.33003 5.22 8.4695L2.22 11.4695C2.15031 11.5392 2.09502 11.6219 2.0573 11.7129C2.01958 11.8039 2.00016 11.9015 2.00016 12C2.00016 12.0985 2.01958 12.1961 2.0573 12.2871C2.09502 12.3781 2.15031 12.4608 2.22 12.5305L5.22 15.5305C5.28922 15.6021 5.372 15.6592 5.46353 15.6985C5.55505 15.7377 5.65347 15.7584 5.75306 15.7592C5.85264 15.76 5.95139 15.741 6.04354 15.7032C6.1357 15.6655 6.21941 15.6097 6.2898 15.5393C6.36018 15.4688 6.41583 15.3851 6.4535 15.2929C6.49117 15.2007 6.5101 15.1019 6.50919 15.0023C6.50827 14.9028 6.48754 14.8044 6.44819 14.7129C6.40884 14.6214 6.35166 14.5387 6.28 14.4695L4.56 12.749L14.751 12.74C14.8495 12.7399 14.947 12.7203 15.0379 12.6825C15.1289 12.6447 15.2115 12.5894 15.281 12.5196C15.3506 12.4499 15.4057 12.3671 15.4433 12.2761C15.4809 12.185 15.5001 12.0875 15.5 11.989C15.4999 11.8905 15.4803 11.793 15.4425 11.7021C15.4047 11.6111 15.3494 11.5285 15.2796 11.459C15.2099 11.3894 15.1271 11.3343 15.0361 11.2967C14.945 11.2591 14.8475 11.2399 14.749 11.24L4.5615 11.249L6.2805 9.5305C6.38889 9.42516 6.46292 9.28953 6.49289 9.14138C6.52286 8.99324 6.50737 8.8395 6.44845 8.70031C6.38953 8.56112 6.28993 8.44298 6.16271 8.36138C6.03549 8.27977 5.88608 8.23851 5.735 8.243Z" fill="white"/>
</svg>
