<svg width="32" height="32" viewBox="0 0 32 32" fill="none" xmlns="http://www.w3.org/2000/svg">
<path d="M16.0001 2.667C8.64808 2.667 2.66675 8.64833 2.66675 16.0003C2.66675 23.3523 8.64808 29.3337 16.0001 29.3337C23.3521 29.3337 29.3334 23.3523 29.3334 16.0003C29.3334 15.7351 29.2281 15.4808 29.0405 15.2932C28.853 15.1057 28.5986 15.0003 28.3334 15.0003C28.0682 15.0003 27.8138 15.1057 27.6263 15.2932C27.4388 15.4808 27.3334 15.7351 27.3334 16.0003C27.3334 22.271 22.2707 27.3337 16.0001 27.3337C9.72941 27.3337 4.66675 22.271 4.66675 16.0003C4.66675 9.72966 9.72941 4.667 16.0001 4.667C18.9034 4.667 21.5347 5.76366 23.5381 7.55366L22.7981 8.29366C22.6584 8.43351 22.5633 8.61162 22.5248 8.80548C22.4863 8.99935 22.5061 9.20028 22.5817 9.38289C22.6573 9.56551 22.7853 9.72163 22.9496 9.83152C23.1139 9.94141 23.3071 10.0002 23.5047 10.0003H26.3334C26.5986 10.0003 26.853 9.89497 27.0405 9.70744C27.2281 9.5199 27.3334 9.26555 27.3334 9.00033V6.17233C27.3332 5.97468 27.2745 5.78151 27.1646 5.61722C27.0547 5.45293 26.8986 5.32489 26.716 5.24928C26.5334 5.17366 26.3324 5.15386 26.1386 5.19237C25.9447 5.23089 25.7666 5.32599 25.6267 5.46566L24.9601 6.13233C22.5099 3.90062 19.3143 2.66473 16.0001 2.667ZM16.0001 8.00033C14.5354 8.00033 13.3334 9.20233 13.3334 10.667V12.0003H12.0001C11.6465 12.0003 11.3073 12.1408 11.0573 12.3909C10.8072 12.6409 10.6667 12.98 10.6667 13.3337V20.0003C10.6667 20.354 10.8072 20.6931 11.0573 20.9431C11.3073 21.1932 11.6465 21.3337 12.0001 21.3337H20.0001C20.3537 21.3337 20.6928 21.1932 20.9429 20.9431C21.1929 20.6931 21.3334 20.354 21.3334 20.0003V13.3337C21.3334 12.98 21.1929 12.6409 20.9429 12.3909C20.6928 12.1408 20.3537 12.0003 20.0001 12.0003H18.6667V10.667C18.6667 9.20233 17.4647 8.00033 16.0001 8.00033ZM16.0001 9.33366C16.7447 9.33366 17.3334 9.92233 17.3334 10.667V12.0003H14.6667V10.667C14.6667 9.92233 15.2554 9.33366 16.0001 9.33366ZM16.0001 15.3337C16.1776 15.3296 16.3542 15.3611 16.5194 15.4263C16.6846 15.4915 16.8352 15.589 16.9622 15.7131C17.0892 15.8373 17.1901 15.9855 17.2591 16.1492C17.328 16.3129 17.3635 16.4887 17.3636 16.6663C17.3636 16.8439 17.3282 17.0197 17.2593 17.1835C17.1905 17.3472 17.0896 17.4955 16.9627 17.6197C16.8357 17.7439 16.6852 17.8415 16.5201 17.9068C16.3549 17.972 16.1783 18.0036 16.0007 17.9997C15.6524 17.992 15.3209 17.8482 15.0772 17.5991C14.8335 17.35 14.697 17.0154 14.6969 16.667C14.6968 16.3185 14.8331 15.9839 15.0767 15.7347C15.3203 15.4855 15.6517 15.3415 16.0001 15.3337Z" fill="#A3A3A3"/>
</svg>
