<svg width="18" height="21" viewBox="0 0 18 21" fill="none" xmlns="http://www.w3.org/2000/svg">
<path d="M8.53207 0C3.82738 0 0 3.88919 0 8.66985C0 10.7282 0.727233 12.7258 2.05422 14.3042C2.20579 14.4792 5.78173 18.608 6.97622 19.7652C7.39496 20.1728 7.95244 20.4004 8.53232 20.4004C9.11219 20.4004 9.66967 20.1728 10.0884 19.7652C11.4771 18.4194 14.8684 14.469 15.0169 14.2956C16.3364 12.7276 17.0623 10.7329 17.0641 8.66985C17.0641 3.88919 13.2367 0 8.53207 0ZM12.3268 8.95596L9.8174 11.5059C9.67034 11.6553 9.47762 11.7298 9.28489 11.7298C9.09217 11.7298 8.89945 11.6553 8.75239 11.5059C8.61126 11.3625 8.53197 11.1679 8.53197 10.9651C8.53197 10.7622 8.61126 10.5677 8.75239 10.4242L9.977 9.17984H5.2698C5.07014 9.17984 4.87866 9.09925 4.73747 8.95578C4.59629 8.81232 4.51698 8.61774 4.51698 8.41486C4.51698 8.21197 4.59629 8.01739 4.73747 7.87393C4.87866 7.73047 5.07014 7.64987 5.2698 7.64987H9.977L8.7529 6.406C8.68099 6.33543 8.62364 6.25102 8.58418 6.15769C8.54473 6.06436 8.52396 5.96398 8.52309 5.8624C8.52223 5.76083 8.54127 5.66009 8.57913 5.56608C8.61698 5.47207 8.67288 5.38665 8.74356 5.31483C8.81425 5.243 8.8983 5.1862 8.99082 5.14773C9.08334 5.10927 9.18248 5.08991 9.28244 5.0908C9.3824 5.09168 9.48118 5.11278 9.57303 5.15287C9.66488 5.19297 9.74795 5.25124 9.8174 5.32431L12.3268 7.87426C12.4678 8.01779 12.547 8.2123 12.547 8.41511C12.547 8.61792 12.4678 8.81243 12.3268 8.95596Z" fill="#0C8040"/>
</svg>
