<svg width="48" height="48" viewBox="0 0 48 48" fill="none" xmlns="http://www.w3.org/2000/svg">
<path d="M35 2C28.925 2 24 6.925 24 13C24 19.075 28.925 24 35 24C41.075 24 46 19.075 46 13C46 6.925 41.075 2 35 2ZM35 6C35.2652 6 35.5196 6.10536 35.7071 6.29289C35.8946 6.48043 36 6.73478 36 7V15C36 15.2652 35.8946 15.5196 35.7071 15.7071C35.5196 15.8946 35.2652 16 35 16C34.7348 16 34.4804 15.8946 34.2929 15.7071C34.1054 15.5196 34 15.2652 34 15V7C34 6.73478 34.1054 6.48043 34.2929 6.29289C34.4804 6.10536 34.7348 6 35 6ZM8.5 9C6.57 9 5 10.57 5 12.5V31.5C5 33.43 6.57 35 8.5 35H39.5C41.43 35 43 33.43 43 31.5V23.24C42.09 23.96 41.08 24.55 40 25V31.5C40 31.78 39.78 32 39.5 32H8.5C8.22 32 8 31.78 8 31.5V12.5C8 12.22 8.22 12 8.5 12H22.05C22.12 10.96 22.32 9.96 22.63 9H8.5ZM35 17.75C35.1642 17.75 35.3267 17.7823 35.4784 17.8451C35.63 17.908 35.7678 18 35.8839 18.1161C36 18.2322 36.092 18.37 36.1549 18.5216C36.2177 18.6733 36.25 18.8358 36.25 19C36.25 19.1642 36.2177 19.3267 36.1549 19.4784C36.092 19.63 36 19.7678 35.8839 19.8839C35.7678 20 35.63 20.092 35.4784 20.1549C35.3267 20.2177 35.1642 20.25 35 20.25C34.6685 20.25 34.3505 20.1183 34.1161 19.8839C33.8817 19.6495 33.75 19.3315 33.75 19C33.75 18.6685 33.8817 18.3505 34.1161 18.1161C34.3505 17.8817 34.6685 17.75 35 17.75ZM2.5 38C2.10218 38 1.72064 38.158 1.43934 38.4393C1.15804 38.7206 1 39.1022 1 39.5C1 39.8978 1.15804 40.2794 1.43934 40.5607C1.72064 40.842 2.10218 41 2.5 41H45.5C45.8978 41 46.2794 40.842 46.5607 40.5607C46.842 40.2794 47 39.8978 47 39.5C47 39.1022 46.842 38.7206 46.5607 38.4393C46.2794 38.158 45.8978 38 45.5 38H2.5Z" fill="white"/>
</svg>
