<svg width="17" height="14" viewBox="0 0 17 14" fill="none" xmlns="http://www.w3.org/2000/svg">
<path d="M0.579564 0C0.425854 0 0.27844 0.061061 0.169751 0.16975C0.0610611 0.27844 0 0.425854 0 0.579564C0 0.733275 0.0610611 0.880689 0.169751 0.989379C0.27844 1.09807 0.425854 1.15913 0.579564 1.15913H1.64442C1.9257 1.15913 2.16023 1.35348 2.21355 1.63012L2.32869 2.23364L3.57475 8.77731C3.68546 9.35099 3.99218 9.86833 4.44239 10.2407C4.8926 10.6131 5.45828 10.8174 6.04254 10.8185H13.2759C13.8602 10.8175 14.4259 10.6133 14.8762 10.2409C15.3264 9.86848 15.6331 9.35106 15.7437 8.77731L16.9897 2.23364C17.0057 2.14989 17.003 2.06364 16.9818 1.98105C16.9606 1.89846 16.9215 1.82157 16.8672 1.75585C16.8128 1.69012 16.7447 1.6372 16.6676 1.60084C16.5905 1.56448 16.5063 1.54559 16.421 1.54551H3.37693L3.3522 1.41336C3.27538 1.0164 3.06309 0.658428 2.75159 0.400635C2.4401 0.142843 2.04875 0.00123097 1.64442 0H0.579564ZM3.59832 2.70463H15.7205L14.6054 8.56055C14.5474 8.87036 14.3826 9.15001 14.1397 9.3508C13.8968 9.5516 13.5911 9.66081 13.2759 9.65941H6.04293C5.72785 9.66056 5.42234 9.55126 5.17951 9.3505C4.93668 9.14974 4.77189 8.87022 4.71379 8.56055V8.55978L3.59832 2.70463ZM10.6192 3.85758C10.5037 3.85751 10.3909 3.8919 10.2952 3.95636C10.1994 4.02081 10.1251 4.11239 10.0817 4.21935C10.0383 4.32632 10.0279 4.4438 10.0517 4.55674C10.0755 4.66968 10.1325 4.77293 10.2154 4.85327L10.7722 5.40927H7.53434C7.38063 5.40927 7.23321 5.47033 7.12452 5.57902C7.01584 5.68771 6.95477 5.83512 6.95477 5.98883C6.95477 6.14254 7.01584 6.28996 7.12452 6.39865C7.23321 6.50734 7.38063 6.5684 7.53434 6.5684H10.7718L10.2154 7.12478C10.1601 7.17827 10.116 7.24224 10.0856 7.31296C10.0553 7.38369 10.0393 7.45975 10.0387 7.5367C10.0381 7.61365 10.0528 7.68996 10.0819 7.76118C10.1111 7.83239 10.1542 7.89708 10.2086 7.95147C10.2631 8.00586 10.3278 8.04886 10.399 8.07797C10.4703 8.10708 10.5466 8.12171 10.6235 8.121C10.7005 8.1203 10.7765 8.10427 10.8472 8.07387C10.9179 8.04346 10.9819 7.99928 11.0353 7.9439L12.5808 6.39839C12.6893 6.28972 12.7503 6.14242 12.7503 5.98883C12.7503 5.83525 12.6893 5.68794 12.5808 5.57927L11.0353 4.03377C10.9813 3.97803 10.9166 3.93371 10.8451 3.90345C10.7736 3.87318 10.6968 3.85758 10.6192 3.85758ZM6.95477 11.5913C6.64735 11.5913 6.35252 11.7134 6.13515 11.9308C5.91777 12.1482 5.79564 12.443 5.79564 12.7504C5.79564 13.0578 5.91777 13.3527 6.13515 13.57C6.35252 13.7874 6.64735 13.9095 6.95477 13.9095C7.26219 13.9095 7.55702 13.7874 7.7744 13.57C7.99178 13.3527 8.1139 13.0578 8.1139 12.7504C8.1139 12.443 7.99178 12.1482 7.7744 11.9308C7.55702 11.7134 7.26219 11.5913 6.95477 11.5913ZM12.364 11.5913C12.0566 11.5913 11.7618 11.7134 11.5444 11.9308C11.327 12.1482 11.2049 12.443 11.2049 12.7504C11.2049 13.0578 11.327 13.3527 11.5444 13.57C11.7618 13.7874 12.0566 13.9095 12.364 13.9095C12.6715 13.9095 12.9663 13.7874 13.1837 13.57C13.401 13.3527 13.5232 13.0578 13.5232 12.7504C13.5232 12.443 13.401 12.1482 13.1837 11.9308C12.9663 11.7134 12.6715 11.5913 12.364 11.5913Z" fill="white"/>
</svg>
