<svg width="24" height="24" viewBox="0 0 24 24" fill="none" xmlns="http://www.w3.org/2000/svg">
<path d="M5.25 3C4.016 3 3 4.016 3 5.25V6.75C3 7.984 4.016 9 5.25 9H9.25C10.484 9 11.5 7.984 11.5 6.75V5.25C11.5 4.016 10.484 3 9.25 3H5.25ZM14.75 3C13.516 3 12.5 4.016 12.5 5.25V11.75C12.5 12.984 13.516 14 14.75 14H18.75C19.984 14 21 12.984 21 11.75V5.25C21 4.016 19.984 3 18.75 3H14.75ZM5.25 4.5H9.25C9.673 4.5 10 4.827 10 5.25V6.75C10 7.173 9.673 7.5 9.25 7.5H5.25C4.827 7.5 4.5 7.173 4.5 6.75V5.25C4.5 4.827 4.827 4.5 5.25 4.5ZM14.75 4.5H18.75C19.173 4.5 19.5 4.827 19.5 5.25V11.75C19.5 12.173 19.173 12.5 18.75 12.5H14.75C14.327 12.5 14 12.173 14 11.75V5.25C14 4.827 14.327 4.5 14.75 4.5ZM5.25 10C4.016 10 3 11.016 3 12.25V18.75C3 19.984 4.016 21 5.25 21H9.25C10.484 21 11.5 19.984 11.5 18.75V12.25C11.5 11.016 10.484 10 9.25 10H5.25ZM5.25 11.5H9.25C9.673 11.5 10 11.827 10 12.25V18.75C10 19.173 9.673 19.5 9.25 19.5H5.25C4.827 19.5 4.5 19.173 4.5 18.75V12.25C4.5 11.827 4.827 11.5 5.25 11.5ZM14.75 15C13.516 15 12.5 16.016 12.5 17.25V18.75C12.5 19.984 13.516 21 14.75 21H18.75C19.984 21 21 19.984 21 18.75V17.25C21 16.016 19.984 15 18.75 15H14.75ZM14.75 16.5H18.75C19.173 16.5 19.5 16.827 19.5 17.25V18.75C19.5 19.173 19.173 19.5 18.75 19.5H14.75C14.327 19.5 14 19.173 14 18.75V17.25C14 16.827 14.327 16.5 14.75 16.5Z" fill="white"/>
</svg>
