<svg width="48" height="48" viewBox="0 0 48 48" fill="none" xmlns="http://www.w3.org/2000/svg">
<path d="M34.484 11.9844C34.1853 11.9842 33.8933 12.0732 33.6455 12.24C33.3976 12.4068 33.2053 12.6439 33.093 12.9207C32.9807 13.1975 32.9537 13.5016 33.0153 13.7939C33.077 14.0862 33.2245 14.3534 33.439 14.5614L40.88 22.0004H3.5C3.30302 22.0004 3.10796 22.0392 2.92597 22.1146C2.74399 22.1899 2.57863 22.3004 2.43934 22.4397C2.30005 22.579 2.18956 22.7444 2.11418 22.9263C2.0388 23.1083 2 23.3034 2 23.5004C2 23.6974 2.0388 23.8924 2.11418 24.0744C2.18956 24.2564 2.30005 24.4217 2.43934 24.561C2.57863 24.7003 2.74399 24.8108 2.92597 24.8862C3.10796 24.9616 3.30302 25.0004 3.5 25.0004H40.879L33.439 32.4404C33.2958 32.5788 33.1816 32.7444 33.1031 32.9274C33.0246 33.1105 32.9833 33.3073 32.9816 33.5065C32.98 33.7057 33.018 33.9032 33.0936 34.0875C33.1691 34.2718 33.2805 34.4392 33.4214 34.58C33.5623 34.7207 33.7299 34.832 33.9142 34.9074C34.0986 34.9827 34.2962 35.0206 34.4953 35.0187C34.6945 35.0169 34.8913 34.9755 35.0743 34.8968C35.2572 34.8181 35.4227 34.7037 35.561 34.5604L45.561 24.5604C45.8419 24.2791 45.9997 23.8979 45.9997 23.5004C45.9997 23.1029 45.8419 22.7216 45.561 22.4404L35.561 12.4404C35.4212 12.2961 35.2538 12.1814 35.0688 12.1031C34.8838 12.0248 34.6849 11.9844 34.484 11.9844Z" fill="#E3E3E3"/>
</svg>
