<svg width="24" height="24" viewBox="0 0 24 24" fill="none" xmlns="http://www.w3.org/2000/svg">
<path d="M12 2C9.2475 2 7 4.2475 7 7C7 9.7525 9.2475 12 12 12C14.7525 12 17 9.7525 17 7C17 4.2475 14.7525 2 12 2ZM12 3.5C13.942 3.5 15.5 5.058 15.5 7C15.5 8.942 13.942 10.5 12 10.5C10.058 10.5 8.5 8.942 8.5 7C8.5 5.058 10.058 3.5 12 3.5ZM5.9895 14C4.8995 14 4 14.8995 4 15.9895V16.75C4 18.552 5.14 19.946 6.6535 20.7815C8.167 21.6165 10.084 22 12 22C13.916 22 15.833 21.6165 17.3465 20.781C18.6375 20.069 19.6085 18.931 19.881 17.5H20.001V15.9895C20.001 14.8995 19.101 14 18.011 14H5.989H5.9895ZM5.9895 15.5H18.01C18.2895 15.5 18.5005 15.71 18.5005 15.9895V16L18.5 16.75C18.5 17.948 17.827 18.804 16.622 19.469C15.417 20.1335 13.709 20.5 12 20.5C10.291 20.5 8.583 20.1335 7.378 19.4685C6.173 18.8035 5.5 17.9485 5.5 16.75V15.9895C5.5 15.71 5.71 15.5 5.9895 15.5Z" fill="white"/>
</svg>
