<svg width="24" height="24" viewBox="0 0 24 24" fill="none" xmlns="http://www.w3.org/2000/svg">
<path d="M4.25 2.5C3.65347 2.50066 3.08155 2.73793 2.65974 3.15974C2.23793 3.58155 2.00066 4.15347 2 4.75V19.25C2 20.4905 3.0095 21.5 4.25 21.5H6.41C6.00771 21.0823 5.72488 20.5643 5.591 20H4.25C3.8365 20 3.5 19.6635 3.5 19.25V4.75C3.5 4.3365 3.8365 4 4.25 4H5.591C5.72509 3.43581 6.00789 2.91785 6.41 2.5H4.25ZM8.75 2.5C7.516 2.5 6.5 3.516 6.5 4.75V19.25C6.5 20.484 7.516 21.5 8.75 21.5H19.75C20.984 21.5 22 20.484 22 19.25V8.75C21.9998 8.55115 21.9207 8.36052 21.78 8.22L16.28 2.72C16.1395 2.57931 15.9488 2.50018 15.75 2.5H8.75ZM8.75 4H9.51V9.75C9.50965 9.8815 9.54393 10.0108 9.60939 10.1248C9.67484 10.2389 9.76917 10.3337 9.88289 10.3997C9.99661 10.4657 10.1257 10.5007 10.2572 10.501C10.3887 10.5013 10.518 10.467 10.632 10.4015L11.51 9.8995L12.3875 10.4015C12.5014 10.4668 12.6306 10.5009 12.7619 10.5004C12.8932 10.4998 13.0221 10.4647 13.1355 10.3985C13.2493 10.3327 13.3438 10.2382 13.4095 10.1243C13.4752 10.0105 13.5099 9.88143 13.51 9.75V4H15V7.25C15 8.484 16.016 9.5 17.25 9.5H20.5V19.25C20.5 19.673 20.173 20 19.75 20H8.75C8.327 20 8 19.673 8 19.25V4.75C8 4.327 8.327 4 8.75 4ZM16.5 5.0605L19.4395 8H17.25C16.827 8 16.5 7.673 16.5 7.25V5.0605ZM11.25 12.5C11.0511 12.5 10.8603 12.579 10.7197 12.7197C10.579 12.8603 10.5 13.0511 10.5 13.25C10.5 13.4489 10.579 13.6397 10.7197 13.7803C10.8603 13.921 11.0511 14 11.25 14H17.25C17.4489 14 17.6397 13.921 17.7803 13.7803C17.921 13.6397 18 13.4489 18 13.25C18 13.0511 17.921 12.8603 17.7803 12.7197C17.6397 12.579 17.4489 12.5 17.25 12.5H11.25ZM11.25 16C11.0511 16 10.8603 16.079 10.7197 16.2197C10.579 16.3603 10.5 16.5511 10.5 16.75C10.5 16.9489 10.579 17.1397 10.7197 17.2803C10.8603 17.421 11.0511 17.5 11.25 17.5H15.75C15.9489 17.5 16.1397 17.421 16.2803 17.2803C16.421 17.1397 16.5 16.9489 16.5 16.75C16.5 16.5511 16.421 16.3603 16.2803 16.2197C16.1397 16.079 15.9489 16 15.75 16H11.25Z" fill="white"/>
</svg>
