<svg width="24" height="24" viewBox="0 0 24 24" fill="none" xmlns="http://www.w3.org/2000/svg">
<path d="M5.25 3C4.7925 2.99985 4.34221 3.11397 3.94 3.332C3.47148 3.58667 3.08667 3.97148 2.832 4.44V4.441C2.7475 4.5965 2.6775 4.761 2.624 4.933V4.934C2.59682 5.02014 2.57396 5.10758 2.5555 5.196V5.197C2.51839 5.37899 2.49979 5.56427 2.5 5.75V18.25C2.5 18.9793 2.78973 19.6788 3.30546 20.1945C3.82118 20.7103 4.52066 21 5.25 21H18.75C19.4793 21 20.1788 20.7103 20.6945 20.1945C21.2103 19.6788 21.5 18.9793 21.5 18.25V5.75C21.5002 5.5641 21.4816 5.37866 21.4445 5.1965V5.1955C21.426 5.10708 21.4032 5.01964 21.376 4.9335V4.9325C21.3229 4.7621 21.2532 4.59731 21.168 4.4405V4.4395C20.9134 3.97124 20.5288 3.58662 20.0605 3.332H20.0595C19.9027 3.24677 19.7379 3.1771 19.5675 3.124H19.5665C19.4804 3.09682 19.3929 3.07396 19.3045 3.0555H19.3035C19.2136 3.0373 19.1228 3.02362 19.0315 3.0145H19.0305C18.9373 3.00491 18.8437 3.00007 18.75 3H5.25ZM5.25 4.5C5.44898 4.50007 5.63978 4.57917 5.78044 4.71992C5.92109 4.86067 6.00007 5.05152 6 5.2505C5.99994 5.44948 5.92083 5.64028 5.78008 5.78093C5.63934 5.92159 5.44848 6.00057 5.2495 6.0005C5.05052 6.00043 4.85972 5.92133 4.71907 5.78058C4.57842 5.63983 4.49944 5.44898 4.4995 5.25C4.49957 5.05102 4.57868 4.86022 4.71942 4.71957C4.86017 4.57891 5.05102 4.49993 5.25 4.5ZM7.75 4.5C7.84853 4.50003 7.94608 4.51947 8.03709 4.55721C8.1281 4.59494 8.21079 4.65023 8.28044 4.71992C8.35008 4.78961 8.40531 4.87234 8.44299 4.96337C8.48066 5.05441 8.50003 5.15198 8.5 5.2505C8.49997 5.34902 8.48053 5.44658 8.4428 5.53759C8.40506 5.6286 8.34977 5.71129 8.28008 5.78093C8.21039 5.85058 8.12767 5.90581 8.03663 5.94349C7.94559 5.98116 7.84803 6.00053 7.7495 6.0005C7.55052 6.00043 7.35972 5.92133 7.21907 5.78058C7.07842 5.63983 6.99944 5.44898 6.9995 5.25C6.99957 5.05102 7.07868 4.86022 7.21942 4.71957C7.36017 4.57891 7.55102 4.49993 7.75 4.5ZM10.75 4.5H18.75C18.9489 4.5 19.1397 4.57902 19.2803 4.71967C19.421 4.86032 19.5 5.05109 19.5 5.25C19.5 5.44891 19.421 5.63968 19.2803 5.78033C19.1397 5.92098 18.9489 6 18.75 6H10.75C10.5511 6 10.3603 5.92098 10.2197 5.78033C10.079 5.63968 10 5.44891 10 5.25C10 5.05109 10.079 4.86032 10.2197 4.71967C10.3603 4.57902 10.5511 4.5 10.75 4.5ZM4 7.5H20V18.25C20 18.5815 19.8683 18.8995 19.6339 19.1339C19.3995 19.3683 19.0815 19.5 18.75 19.5H5.25C4.91848 19.5 4.60054 19.3683 4.36612 19.1339C4.1317 18.8995 4 18.5815 4 18.25V7.5ZM11.99 8.991C11.8244 8.99363 11.6666 9.06188 11.5513 9.18075C11.436 9.29963 11.3726 9.45941 11.375 9.625V10.038C10.334 10.138 9.5 10.997 9.5 12.0625C9.5 13.194 10.431 14.125 11.5625 14.125H12.6875C13.144 14.125 13.5 14.481 13.5 14.9375C13.5 15.394 13.144 15.75 12.6875 15.75H11.1375C10.9912 15.7504 10.8476 15.711 10.722 15.6362C10.5963 15.5613 10.4933 15.4538 10.424 15.325C10.3846 15.2529 10.3314 15.1893 10.2674 15.1377C10.2034 15.0862 10.1299 15.0478 10.0511 15.0247C9.97223 15.0015 9.88962 14.9942 9.80793 15.003C9.72625 15.0118 9.6471 15.0366 9.575 15.076C9.50291 15.1154 9.43928 15.1686 9.38774 15.2326C9.33621 15.2966 9.29779 15.3701 9.27467 15.4489C9.25155 15.5278 9.24418 15.6104 9.25299 15.6921C9.26179 15.7738 9.28661 15.8529 9.326 15.925C9.50386 16.2501 9.76584 16.5214 10.0845 16.7106C10.4032 16.8997 10.7669 16.9997 11.1375 17H11.375V17.3515C11.375 17.5173 11.4408 17.6762 11.5581 17.7934C11.6753 17.9107 11.8342 17.9765 12 17.9765C12.1658 17.9765 12.3247 17.9107 12.4419 17.7934C12.5592 17.6762 12.625 17.5173 12.625 17.3515V17H12.6875C13.819 17 14.75 16.069 14.75 14.9375C14.75 13.806 13.819 12.875 12.6875 12.875H11.5625C11.4554 12.8763 11.3492 12.8561 11.2501 12.8157C11.1509 12.7754 11.0608 12.7156 10.9851 12.6399C10.9094 12.5642 10.8496 12.4741 10.8093 12.3749C10.7689 12.2758 10.7487 12.1696 10.75 12.0625C10.75 11.606 11.106 11.25 11.5625 11.25H11.8985C11.9651 11.2608 12.0329 11.2608 12.0995 11.25H12.3625C12.6755 11.25 12.939 11.422 13.076 11.674C13.1153 11.7461 13.1683 11.8098 13.2322 11.8613C13.2961 11.9129 13.3695 11.9514 13.4482 11.9746C13.527 11.9978 13.6095 12.0053 13.6911 11.9966C13.7728 11.9879 13.8519 11.9633 13.924 11.924C13.9961 11.8847 14.0598 11.8317 14.1113 11.7678C14.1629 11.7039 14.2014 11.6305 14.2246 11.5518C14.2478 11.473 14.2553 11.3905 14.2466 11.3089C14.2379 11.2272 14.2133 11.1481 14.174 11.076C13.867 10.513 13.283 10.164 12.625 10.073V9.625C12.6262 9.54132 12.6106 9.45825 12.5791 9.38072C12.5476 9.30318 12.5009 9.23276 12.4417 9.17363C12.3824 9.1145 12.3119 9.06787 12.2344 9.03649C12.1568 9.00512 12.0737 8.98965 11.99 8.991Z" fill="white"/>
</svg>
