<svg width="48" height="48" viewBox="0 0 48 48" fill="none" xmlns="http://www.w3.org/2000/svg">
<path d="M23.977 3.97869C23.5795 3.98475 23.2006 4.14835 22.9237 4.43354C22.6468 4.71873 22.4944 5.1022 22.5 5.49969V7.00169H12.332C12.3136 7.00069 12.2953 7.00002 12.277 6.99969C11.401 6.99969 10.557 7.32869 9.91196 7.92169L6.25596 11.2727C4.67296 12.7247 4.67396 15.2777 6.25796 16.7287L9.91396 20.0797C9.91396 20.0804 9.91396 20.081 9.91396 20.0817C10.5589 20.6729 11.402 21.0012 12.277 21.0017H22.5V24.9977H11.557C9.08896 24.9977 7.05696 27.0307 7.05696 29.4977V34.4977C7.05696 36.9657 9.08896 38.9977 11.557 38.9977H22.5V44.4997C22.5 44.8975 22.658 45.2791 22.9393 45.5604C23.2206 45.8417 23.6021 45.9997 24 45.9997C24.3978 45.9997 24.7793 45.8417 25.0606 45.5604C25.3419 45.2791 25.5 44.8975 25.5 44.4997V38.9977H35.725C35.7423 38.9987 35.7596 38.9993 35.777 38.9997C36.653 38.9999 37.4972 38.6716 38.143 38.0797L38.145 38.0777L41.799 34.7267C43.381 33.2747 43.382 30.7217 41.799 29.2707L38.143 25.9197C38.143 25.919 38.143 25.9184 38.143 25.9177C37.497 25.3262 36.6529 24.9979 35.777 24.9977H25.5V21.0017H36.5C38.968 21.0017 41 18.9687 41 16.5017V11.5017C41 9.03369 38.968 7.00169 36.5 7.00169H25.5V5.49969C25.5028 5.299 25.4653 5.09978 25.3898 4.91383C25.3142 4.72788 25.2021 4.55899 25.0601 4.41716C24.9181 4.27533 24.749 4.16344 24.563 4.08812C24.3769 4.01281 24.1777 3.9756 23.977 3.97869ZM12.273 10.0017C12.2743 10.0017 12.2756 10.0017 12.277 10.0017H23.77C23.9221 10.0252 24.0769 10.0252 24.229 10.0017H36.5C37.346 10.0017 38 10.6547 38 11.5017V16.5017C38 17.3477 37.346 18.0017 36.5 18.0017H24.26C24.1666 17.9851 24.0718 17.9774 23.977 17.9787C23.9002 17.9805 23.8236 17.9882 23.748 18.0017H12.278C12.153 18.001 12.0327 17.9536 11.941 17.8687H11.939L8.28296 14.5157C8.20783 14.4523 8.14744 14.3733 8.10601 14.2842C8.06459 14.1951 8.04313 14.098 8.04313 13.9997C8.04313 13.9014 8.06459 13.8043 8.10601 13.7152C8.14744 13.6261 8.20783 13.5471 8.28296 13.4837L11.941 10.1307C12.032 10.0484 12.1502 10.0025 12.273 10.0017ZM11.557 27.9977H23.74C23.9094 28.027 24.0826 28.027 24.252 27.9977H35.777C35.9023 27.9981 36.023 28.0456 36.115 28.1307L39.771 31.4837C39.7716 31.4837 39.7723 31.4837 39.773 31.4837C40.092 31.7757 40.091 32.2227 39.771 32.5157L36.115 35.8687C36.0231 35.951 35.9043 35.9969 35.781 35.9977C35.7796 35.9977 35.7783 35.9977 35.777 35.9977H24.23C24.1463 35.9839 24.0617 35.9772 23.977 35.9777C23.9076 35.9796 23.8384 35.9862 23.77 35.9977H11.557C10.71 35.9977 10.057 35.3447 10.057 34.4977V29.4977C10.057 28.6517 10.71 27.9977 11.557 27.9977Z" fill="#0C8040"/>
</svg>
